<svg width="74" height="74" viewBox="0 0 74 74" fill="none" xmlns="http://www.w3.org/2000/svg">
<path d="M59.063 49.8723C54.5399 73.3493 25.0321 67.9646 23.7398 67.9646C22.7058 50.2169 34.222 37.1645 40.1093 32.8568C40.1093 32.8568 22.663 36.9491 17.709 64.3031C8.44744 41.2568 18.7859 32.6414 35.3706 25.7491C48.6384 20.2352 49.8015 9.95416 48.7245 5.50286C53.6784 12.467 62.6815 31.0907 59.063 49.8723Z" fill="#5DBA63"/>
<path fill-rule="evenodd" clip-rule="evenodd" d="M23.7021 67.9797C34.9838 64.9072 57.1662 52.7249 57.8578 27.7785C57.8774 27.074 57.8996 26.3978 57.9243 25.7491C59.9127 33.0895 60.8519 41.5103 59.2038 49.9632C58.8729 51.6606 58.4098 53.2071 57.8348 54.6156C50.9997 71.1529 28.6821 68.5569 24.2277 68.0388C24.0075 68.0131 23.831 67.9926 23.7021 67.9797Z" fill="#48AB4E"/>
<ellipse cx="21.1175" cy="12.826" rx="3.0154" ry="3.0154" fill="#49A011"/>
<ellipse cx="38.7791" cy="14.1183" rx="3.0154" ry="3.0154" fill="#49A011"/>
<ellipse cx="16.8098" cy="26.1799" rx="1.72308" ry="1.72308" fill="#49A011"/>
<ellipse cx="22.4098" cy="24.4568" rx="1.29231" ry="1.29231" fill="#49A011"/>
<ellipse cx="30.5944" cy="19.7183" rx="1.29231" ry="1.29231" fill="#49A011"/>
</svg>
