<svg width="79" height="79" viewBox="0 0 79 79" fill="none" xmlns="http://www.w3.org/2000/svg">
<path d="M66.6562 12.3438H12.3438C11.0342 12.3438 9.77837 12.8639 8.85241 13.7899C7.92645 14.7159 7.40625 15.9717 7.40625 17.2812V61.7188C7.40625 63.0283 7.92645 64.2841 8.85241 65.2101C9.77837 66.1361 11.0342 66.6562 12.3438 66.6562H66.6562C67.9658 66.6562 69.2216 66.1361 70.1476 65.2101C71.0736 64.2841 71.5938 63.0283 71.5938 61.7188V17.2812C71.5938 15.9717 71.0736 14.7159 70.1476 13.7899C69.2216 12.8639 67.9658 12.3438 66.6562 12.3438ZM66.6562 17.2812V48.9893L58.6112 40.9473C58.1527 40.4887 57.6084 40.1249 57.0092 39.8767C56.4101 39.6285 55.768 39.5007 55.1195 39.5007C54.471 39.5007 53.8288 39.6285 53.2297 39.8767C52.6306 40.1249 52.0862 40.4887 51.6277 40.9473L45.4559 47.1192L31.8777 33.5411C30.9519 32.6158 29.6965 32.096 28.3875 32.096C27.0786 32.096 25.8232 32.6158 24.8973 33.5411L12.3438 46.0946V17.2812H66.6562ZM12.3438 53.0781L28.3906 37.0312L53.0781 61.7188H12.3438V53.0781ZM66.6562 61.7188H60.0616L48.9522 50.6094L55.1241 44.4375L66.6562 55.9727V61.7188ZM44.4375 30.8594C44.4375 30.127 44.6547 29.411 45.0616 28.802C45.4685 28.1931 46.0468 27.7184 46.7235 27.4381C47.4002 27.1579 48.1447 27.0845 48.8631 27.2274C49.5814 27.3703 50.2412 27.723 50.7591 28.2409C51.277 28.7588 51.6297 29.4186 51.7726 30.1369C51.9155 30.8553 51.8421 31.5998 51.5619 32.2765C51.2816 32.9532 50.8069 33.5315 50.198 33.9384C49.589 34.3453 48.873 34.5625 48.1406 34.5625C47.1585 34.5625 46.2166 34.1724 45.5221 33.4779C44.8277 32.7834 44.4375 31.8415 44.4375 30.8594Z" fill="#D8D8D8"/>
</svg>
