<svg width="19" height="18" viewBox="0 0 19 18" fill="none" xmlns="http://www.w3.org/2000/svg">
<path d="M13.1303 17.0625H5.27033C3.17033 17.0625 1.83533 15.81 1.71533 13.7175L1.32533 7.52999C1.26533 6.59249 1.58783 5.69249 2.23283 5.00999C2.87033 4.32749 3.77033 3.93749 4.70033 3.93749C4.94033 3.93749 5.17283 3.79499 5.28533 3.56999L5.82533 2.49749C6.26783 1.61999 7.37783 0.937492 8.34533 0.937492H10.0628C11.0303 0.937492 12.1328 1.61999 12.5753 2.48999L13.1153 3.58499C13.2278 3.79499 13.4528 3.93749 13.7003 3.93749C14.6303 3.93749 15.5303 4.32749 16.1678 5.00999C16.8128 5.69999 17.1353 6.59249 17.0753 7.52999L16.6853 13.725C16.5503 15.8475 15.2528 17.0625 13.1303 17.0625ZM8.34533 2.06249C7.79033 2.06249 7.08533 2.49749 6.83033 2.99999L6.29033 4.07999C5.97533 4.68749 5.36783 5.06249 4.70033 5.06249C4.07033 5.06249 3.48533 5.31749 3.05033 5.77499C2.62283 6.23249 2.40533 6.83249 2.45033 7.45499L2.84033 13.65C2.93033 15.165 3.74783 15.9375 5.27033 15.9375H13.1303C14.6453 15.9375 15.4628 15.165 15.5603 13.65L15.9503 7.45499C15.9878 6.83249 15.7778 6.23249 15.3503 5.77499C14.9153 5.31749 14.3303 5.06249 13.7003 5.06249C13.0328 5.06249 12.4253 4.68749 12.1103 4.09499L11.5628 2.99999C11.3153 2.50499 10.6103 2.06999 10.0553 2.06999H8.34533V2.06249Z" fill="#494B5E"/>
<path d="M13.1303 17.0625H5.27033C3.17033 17.0625 1.83533 15.81 1.71533 13.7175L1.32533 7.52999C1.26533 6.59249 1.58783 5.69249 2.23283 5.00999C2.87033 4.32749 3.77033 3.93749 4.70033 3.93749C4.94033 3.93749 5.17283 3.79499 5.28533 3.56999L5.82533 2.49749C6.26783 1.61999 7.37783 0.937492 8.34533 0.937492H10.0628C11.0303 0.937492 12.1328 1.61999 12.5753 2.48999L13.1153 3.58499C13.2278 3.79499 13.4528 3.93749 13.7003 3.93749C14.6303 3.93749 15.5303 4.32749 16.1678 5.00999C16.8128 5.69999 17.1353 6.59249 17.0753 7.52999L16.6853 13.725C16.5503 15.8475 15.2528 17.0625 13.1303 17.0625ZM8.34533 2.06249C7.79033 2.06249 7.08533 2.49749 6.83033 2.99999L6.29033 4.07999C5.97533 4.68749 5.36783 5.06249 4.70033 5.06249C4.07033 5.06249 3.48533 5.31749 3.05033 5.77499C2.62283 6.23249 2.40533 6.83249 2.45033 7.45499L2.84033 13.65C2.93033 15.165 3.74783 15.9375 5.27033 15.9375H13.1303C14.6453 15.9375 15.4628 15.165 15.5603 13.65L15.9503 7.45499C15.9878 6.83249 15.7778 6.23249 15.3503 5.77499C14.9153 5.31749 14.3303 5.06249 13.7003 5.06249C13.0328 5.06249 12.4253 4.68749 12.1103 4.09499L11.5628 2.99999C11.3153 2.50499 10.6103 2.06999 10.0553 2.06999H8.34533V2.06249Z" fill="black" fill-opacity="0.2"/>
<path d="M10.3253 6.56249H8.07532C7.76782 6.56249 7.51282 6.30749 7.51282 5.99999C7.51282 5.69249 7.76782 5.43749 8.07532 5.43749H10.3253C10.6328 5.43749 10.8878 5.69249 10.8878 5.99999C10.8878 6.30749 10.6328 6.56249 10.3253 6.56249Z" fill="#494B5E"/>
<path d="M10.3253 6.56249H8.07532C7.76782 6.56249 7.51282 6.30749 7.51282 5.99999C7.51282 5.69249 7.76782 5.43749 8.07532 5.43749H10.3253C10.6328 5.43749 10.8878 5.69249 10.8878 5.99999C10.8878 6.30749 10.6328 6.56249 10.3253 6.56249Z" fill="black" fill-opacity="0.2"/>
<path d="M9.20032 14.0625C7.54282 14.0625 6.20032 12.72 6.20032 11.0625C6.20032 9.40499 7.54282 8.06249 9.20032 8.06249C10.8578 8.06249 12.2003 9.40499 12.2003 11.0625C12.2003 12.72 10.8578 14.0625 9.20032 14.0625ZM9.20032 9.18749C8.16532 9.18749 7.32532 10.0275 7.32532 11.0625C7.32532 12.0975 8.16532 12.9375 9.20032 12.9375C10.2353 12.9375 11.0753 12.0975 11.0753 11.0625C11.0753 10.0275 10.2353 9.18749 9.20032 9.18749Z" fill="#494B5E"/>
<path d="M9.20032 14.0625C7.54282 14.0625 6.20032 12.72 6.20032 11.0625C6.20032 9.40499 7.54282 8.06249 9.20032 8.06249C10.8578 8.06249 12.2003 9.40499 12.2003 11.0625C12.2003 12.72 10.8578 14.0625 9.20032 14.0625ZM9.20032 9.18749C8.16532 9.18749 7.32532 10.0275 7.32532 11.0625C7.32532 12.0975 8.16532 12.9375 9.20032 12.9375C10.2353 12.9375 11.0753 12.0975 11.0753 11.0625C11.0753 10.0275 10.2353 9.18749 9.20032 9.18749Z" fill="black" fill-opacity="0.2"/>
</svg>
