<svg width="19" height="18" viewBox="0 0 19 18" fill="none" xmlns="http://www.w3.org/2000/svg">
<path d="M7.46716 8.06249C6.32716 8.06249 5.40466 7.13999 5.40466 5.99999C5.40466 4.85999 6.32716 3.93749 7.46716 3.93749C8.60716 3.93749 9.52966 4.85999 9.52966 5.99999C9.52966 7.13999 8.60716 8.06249 7.46716 8.06249ZM7.46716 5.06249C6.94966 5.06249 6.52966 5.48249 6.52966 5.99999C6.52966 6.51749 6.94966 6.93749 7.46716 6.93749C7.98466 6.93749 8.40466 6.51749 8.40466 5.99999C8.40466 5.48249 7.98466 5.06249 7.46716 5.06249Z" fill="#494B5E"/>
<path d="M7.46716 8.06249C6.32716 8.06249 5.40466 7.13999 5.40466 5.99999C5.40466 4.85999 6.32716 3.93749 7.46716 3.93749C8.60716 3.93749 9.52966 4.85999 9.52966 5.99999C9.52966 7.13999 8.60716 8.06249 7.46716 8.06249ZM7.46716 5.06249C6.94966 5.06249 6.52966 5.48249 6.52966 5.99999C6.52966 6.51749 6.94966 6.93749 7.46716 6.93749C7.98466 6.93749 8.40466 6.51749 8.40466 5.99999C8.40466 5.48249 7.98466 5.06249 7.46716 5.06249Z" fill="black" fill-opacity="0.2"/>
<path d="M11.9672 17.0625H7.46716C3.39466 17.0625 1.65466 15.3225 1.65466 11.25V6.74999C1.65466 2.67749 3.39466 0.937492 7.46716 0.937492H10.4672C10.7747 0.937492 11.0297 1.19249 11.0297 1.49999C11.0297 1.80749 10.7747 2.06249 10.4672 2.06249H7.46716C4.00966 2.06249 2.77966 3.29249 2.77966 6.74999V11.25C2.77966 14.7075 4.00966 15.9375 7.46716 15.9375H11.9672C15.4247 15.9375 16.6547 14.7075 16.6547 11.25V7.49999C16.6547 7.19249 16.9097 6.93749 17.2172 6.93749C17.5247 6.93749 17.7797 7.19249 17.7797 7.49999V11.25C17.7797 15.3225 16.0397 17.0625 11.9672 17.0625Z" fill="#494B5E"/>
<path d="M11.9672 17.0625H7.46716C3.39466 17.0625 1.65466 15.3225 1.65466 11.25V6.74999C1.65466 2.67749 3.39466 0.937492 7.46716 0.937492H10.4672C10.7747 0.937492 11.0297 1.19249 11.0297 1.49999C11.0297 1.80749 10.7747 2.06249 10.4672 2.06249H7.46716C4.00966 2.06249 2.77966 3.29249 2.77966 6.74999V11.25C2.77966 14.7075 4.00966 15.9375 7.46716 15.9375H11.9672C15.4247 15.9375 16.6547 14.7075 16.6547 11.25V7.49999C16.6547 7.19249 16.9097 6.93749 17.2172 6.93749C17.5247 6.93749 17.7797 7.19249 17.7797 7.49999V11.25C17.7797 15.3225 16.0397 17.0625 11.9672 17.0625Z" fill="black" fill-opacity="0.2"/>
<path d="M16.6547 4.3125H12.5297C12.2222 4.3125 11.9672 4.0575 11.9672 3.75C11.9672 3.4425 12.2222 3.1875 12.5297 3.1875H16.6547C16.9622 3.1875 17.2172 3.4425 17.2172 3.75C17.2172 4.0575 16.9622 4.3125 16.6547 4.3125Z" fill="#494B5E"/>
<path d="M16.6547 4.3125H12.5297C12.2222 4.3125 11.9672 4.0575 11.9672 3.75C11.9672 3.4425 12.2222 3.1875 12.5297 3.1875H16.6547C16.9622 3.1875 17.2172 3.4425 17.2172 3.75C17.2172 4.0575 16.9622 4.3125 16.6547 4.3125Z" fill="black" fill-opacity="0.2"/>
<path d="M14.5922 6.375C14.2847 6.375 14.0297 6.12 14.0297 5.8125V1.6875C14.0297 1.38 14.2847 1.125 14.5922 1.125C14.8997 1.125 15.1547 1.38 15.1547 1.6875V5.8125C15.1547 6.12 14.8997 6.375 14.5922 6.375Z" fill="#494B5E"/>
<path d="M14.5922 6.375C14.2847 6.375 14.0297 6.12 14.0297 5.8125V1.6875C14.0297 1.38 14.2847 1.125 14.5922 1.125C14.8997 1.125 15.1547 1.38 15.1547 1.6875V5.8125C15.1547 6.12 14.8997 6.375 14.5922 6.375Z" fill="black" fill-opacity="0.2"/>
<path d="M2.71964 14.775C2.53964 14.775 2.35964 14.685 2.25464 14.5275C2.08214 14.2725 2.14964 13.92 2.40464 13.7475L6.10214 11.265C6.91214 10.725 8.02964 10.785 8.76464 11.4075L9.01214 11.625C9.38714 11.9475 10.0246 11.9475 10.3921 11.625L13.5121 8.94749C14.3146 8.26499 15.5596 8.26499 16.3621 8.94749L17.5846 9.99749C17.8171 10.2 17.8471 10.5525 17.6446 10.7925C17.4421 11.025 17.0896 11.055 16.8496 10.8525L15.6271 9.80249C15.2521 9.47999 14.6146 9.47999 14.2471 9.80249L11.1271 12.48C10.3321 13.1625 9.07964 13.1625 8.27714 12.48L8.02964 12.2625C7.68464 11.97 7.11464 11.94 6.73214 12.2025L3.04214 14.685C2.93714 14.745 2.82464 14.775 2.71964 14.775Z" fill="#494B5E"/>
<path d="M2.71964 14.775C2.53964 14.775 2.35964 14.685 2.25464 14.5275C2.08214 14.2725 2.14964 13.92 2.40464 13.7475L6.10214 11.265C6.91214 10.725 8.02964 10.785 8.76464 11.4075L9.01214 11.625C9.38714 11.9475 10.0246 11.9475 10.3921 11.625L13.5121 8.94749C14.3146 8.26499 15.5596 8.26499 16.3621 8.94749L17.5846 9.99749C17.8171 10.2 17.8471 10.5525 17.6446 10.7925C17.4421 11.025 17.0896 11.055 16.8496 10.8525L15.6271 9.80249C15.2521 9.47999 14.6146 9.47999 14.2471 9.80249L11.1271 12.48C10.3321 13.1625 9.07964 13.1625 8.27714 12.48L8.02964 12.2625C7.68464 11.97 7.11464 11.94 6.73214 12.2025L3.04214 14.685C2.93714 14.745 2.82464 14.775 2.71964 14.775Z" fill="black" fill-opacity="0.2"/>
</svg>
